<svg width="30" height="30" viewBox="0 0 30 30" fill="none" xmlns="http://www.w3.org/2000/svg">
<g clip-path="url(#clip0)">
<path d="M0.63714 11.243H28.1474C28.4925 11.243 28.7726 11.5232 28.7726 11.8683V26.8739C28.7726 28.597 27.3709 30 25.6465 30H3.13815C1.41374 30 0.0120049 28.597 0.0120049 26.8739V11.8683C0.0119476 11.5231 0.292013 11.243 0.63714 11.243ZM1.26239 26.8738C1.26239 27.908 2.10394 28.7495 3.13809 28.7495H25.6464C26.6806 28.7495 27.5221 27.908 27.5221 26.8738V12.4935H1.26239V26.8738Z" fill="white"/>
<path d="M0.0319309 5.4571L1.0961 1.41937C1.34117 0.437737 2.34402 -0.178723 3.33814 0.0463609L28.53 6.02356C29.0252 6.1361 29.4441 6.43744 29.7105 6.87014C29.9768 7.30278 30.0556 7.81297 29.9306 8.30816L28.7526 12.9649C28.6826 13.2475 28.4275 13.4363 28.1474 13.4363C28.0974 13.4363 28.0462 13.4313 27.9924 13.4176C27.6585 13.3338 27.456 12.9936 27.541 12.6585L27.6098 12.3872L0.498453 6.22742C0.333391 6.18868 0.189608 6.0861 0.102036 5.94109C0.0131741 5.79601 -0.0105648 5.62093 0.0319309 5.4571ZM27.916 11.1742L28.7188 8.0043C28.7601 7.83923 28.7326 7.66919 28.645 7.52412C28.5562 7.38033 28.4162 7.28028 28.2462 7.24024L3.05432 1.26433C3.00931 1.25308 2.96306 1.2481 2.91804 1.2481C2.63792 1.2481 2.37907 1.44065 2.3078 1.72951L1.40623 5.14954L27.916 11.1742Z" fill="white"/>
<path d="M22.8654 11.3081C23.1756 11.1568 23.5482 11.2793 23.7057 11.5882L26.2067 16.59C26.3605 16.8989 26.2355 17.274 25.9266 17.4291C25.8353 17.4741 25.7402 17.4954 25.6464 17.4954C25.4176 17.4954 25.1963 17.3691 25.0862 17.149L22.5853 12.1472C22.4315 11.8382 22.5566 11.4631 22.8654 11.3081Z" fill="white"/>
<path d="M16.6143 11.3081C16.9232 11.1568 17.2983 11.2793 17.4534 11.5882L19.9544 16.59C20.1082 16.8989 19.9831 17.274 19.6742 17.4291C19.583 17.4741 19.4879 17.4954 19.3941 17.4954C19.1653 17.4954 18.9439 17.3691 18.8352 17.149L16.3342 12.1472C16.1805 11.8382 16.3055 11.4631 16.6143 11.3081Z" fill="white"/>
<path d="M10.3621 11.3081C10.6697 11.1568 11.0448 11.2793 11.2012 11.5882L13.7021 16.59C13.8559 16.8989 13.7309 17.274 13.422 17.4291C13.3307 17.4741 13.2356 17.4954 13.1419 17.4954C12.913 17.4954 12.6917 17.3691 12.5829 17.149L10.082 12.1472C9.92815 11.8382 10.0532 11.4631 10.3621 11.3081Z" fill="white"/>
<path d="M4.10969 11.3081C4.41983 11.1568 4.79245 11.2793 4.94878 11.5882L7.44972 16.59C7.60353 16.8989 7.47851 17.274 7.1696 17.4291C7.07834 17.4741 6.98326 17.4954 6.88948 17.4954C6.66064 17.4954 6.43931 17.3691 6.33052 17.149L3.82957 12.1472C3.67582 11.8382 3.80085 11.4631 4.10969 11.3081Z" fill="white"/>
<path d="M0.637142 16.2449H28.1474C28.4925 16.2449 28.7726 16.525 28.7726 16.8701C28.7726 17.2153 28.4925 17.4954 28.1474 17.4954H0.637142C0.290783 17.4954 0.0118904 17.2153 0.0118904 16.8701C0.0118904 16.525 0.292015 16.2449 0.637142 16.2449Z" fill="white"/>
<path d="M22.1014 10.1514L26.408 5.84478C26.6518 5.60094 27.0483 5.60094 27.2921 5.84478C27.5359 6.08862 27.5359 6.48503 27.2921 6.72887L22.9855 11.0367C22.8629 11.158 22.7029 11.2193 22.5428 11.2193C22.3828 11.2193 22.2227 11.158 22.1014 11.0355C21.8576 10.7916 21.8576 10.3952 22.1014 10.1514Z" fill="white"/>
<path d="M15.9842 8.76206L20.2945 4.45546C20.5383 4.21162 20.9347 4.21162 21.1786 4.45546C21.4224 4.6993 21.4224 5.09572 21.1786 5.33956L16.8695 9.64616C16.7469 9.76743 16.5869 9.82875 16.4268 9.82875C16.2667 9.82875 16.1067 9.76749 15.9841 9.64616C15.7403 9.40232 15.7403 9.0059 15.9842 8.76206Z" fill="white"/>
<path d="M9.87181 7.37282L14.1747 3.06499C14.4185 2.82115 14.8149 2.82115 15.0588 3.06499C15.3026 3.30883 15.3026 3.70525 15.0588 3.94909L10.7559 8.25692C10.6333 8.37819 10.4733 8.43951 10.3132 8.43951C10.1532 8.43951 9.99315 8.37948 9.87181 8.25692C9.62797 8.01308 9.62797 7.61666 9.87181 7.37282Z" fill="white"/>
<path d="M3.76207 5.98482L8.0662 1.67699C8.31004 1.43315 8.70646 1.43315 8.9503 1.67699C9.19414 1.92083 9.19414 2.31725 8.9503 2.56109L4.64622 6.86892C4.52366 6.99019 4.36364 7.05151 4.20356 7.05151C4.04348 7.05151 3.88346 6.99025 3.76213 6.86892C3.51823 6.62508 3.51823 6.22866 3.76207 5.98482Z" fill="white"/>
</g>
<defs>
<clipPath id="clip0">
<rect width="30" height="30" fill="white" transform="matrix(-1 0 0 1 30 0)"/>
</clipPath>
</defs>
</svg>
